<svg xmlns="http://www.w3.org/2000/svg" viewBox="0 0 1068.33 671.61"><defs><style>.cls-1{fill:white;}</style></defs><g id="Camada_3" data-name="Camada 3"><path class="cls-1" d="M837.91,203.5S750.57-23.59,484.66,1.64c0,0-308.61,33-291.14,372.66C193.52,374.3,542.89,428.65,837.91,203.5Z" transform="translate(0.33 0.32)"/><path class="cls-1" d="M861.2,213.2S667.11,415.06,255.63,500.46c0,0-163,34.94-155.28-44.64,0,0,0-38.82,85.4-104.81,0,0-99,56.29-147.51,108.69,0,0-106.75,106.76,34.94,110.64,0,0,120.34,5.82,328-77.64C401.2,492.7,742.81,370.42,861.2,213.2Z" transform="translate(0.33 0.32)"/><path class="cls-1" d="M278,565.49s244.56-25.24,485.24-137.81c0,0,308.61-126.16,304.72-227.09,0,0,11.65-77.64-236.79-36.88,0,0,98-6.79,115.49,49.49,0,0,7.21,41.51-39.26,79.29-4,3.25-7.87,6.67-11.69,10.14-23.37,21.24-112.94,95.54-288.72,162.9C606.94,465.53,422.55,543.17,278,565.49Z" transform="translate(0.33 0.32)"/></g><g id="Camada_1" data-name="Camada 1"><path class="cls-1" d="M534.84,667.92a33.24,33.24,0,0,1-3.59,3.37l4.19-.12-.26-3.25Z" transform="translate(0.33 0.32)"/><path class="cls-1" d="M630.89,653.4l-8.38-27.86a2.86,2.86,0,0,0-3.52-1.88l-12.84,3.64a2.87,2.87,0,0,1-3.53-1.88,2.76,2.76,0,0,1,1.93-3.43l19.6-5.54a2.86,2.86,0,0,1,3.52,1.88l10,33.16A272,272,0,0,0,671,638.65c-2.79-1.37-5.18-4-7.07-7.91l-16.16-33.49A2.82,2.82,0,0,0,644,596l-8.16,3.73a2.81,2.81,0,0,1-3.7-1.29l0-.1a2.67,2.67,0,0,1,1.33-3.6L648,588a2.83,2.83,0,0,1,3.7,1.3l18.79,38.94c2.51,5.22,6.51,6.12,11,4.08,1.47-.67,4.19-1.4,5.87-2.24a3.63,3.63,0,0,1,1.67-.47c6.17-3.33,12.62-7.08,19.24-11.27-3.32-1-6.24-3.6-8.64-7.86L681.3,578.08a2.81,2.81,0,0,0-3.77-1.07l-7.9,4.21a2.82,2.82,0,0,1-3.78-1.07l-.05-.09a2.67,2.67,0,0,1,1.1-3.68L681,568.87a2.82,2.82,0,0,1,3.77,1.07L706,607.67c2.85,5.05,6.64,5.16,11.21,3.41a45.39,45.39,0,0,0,5.29-2.32l.12-.06,1.68-1.2c.11-.1.18-.17.25-.17q7.19-5.19,14.49-11.12a10.71,10.71,0,0,1-5.88-3.73c-5.49-6.7-2.16-14.88,11.66-27.91a2.63,2.63,0,0,0-.2-4c-3.41-2.5-7.68-3-12.7.86-3.39,2.62-5.69,6.49-7.24,10.06a2.77,2.77,0,0,1-3.51,1.44h0a2.67,2.67,0,0,1-1.58-3.54,33.62,33.62,0,0,1,9.66-13.07c8.8-6.82,17.28-5.06,23.68,2.75l11.6,14.15c31.16-31.26,61.15-73.93,82.12-131.91,0,0-135.87,99-254.27,126.16,0,0-135.86,36.88-287.26,17.47,0,0,56.9,56.89,149.28,78.39a9.2,9.2,0,0,1-.6-4.5l4-41.36a4.8,4.8,0,0,1,5.46-4.21l.39,0c1.46.08,2.74-.06,2.63,1.37l-2.91,37.82a8.39,8.39,0,0,0,7.1,8.84l19.57,3.24a7.79,7.79,0,0,1-2.36,4.63q10.14,1.23,20.73,1.79c-2.11-2.75-3.09-6.69-3-11.77l.42-21a3.9,3.9,0,0,1,4-3.77l3.07.06-.47,24c-.15,7.5,2.49,11.18,9.27,11.31,3.91.08,7-1.32,10.57-4.68a7.69,7.69,0,0,0,2.43-5.47l.4-20.75a4.16,4.16,0,0,1,4.14-4l3.88-.08-1,36.15a314.46,314.46,0,0,0,33.06-3.69l-19.75-28.69a3,3,0,0,1,2-4.67l.39-.07a3.17,3.17,0,0,1,3.21,1.32l12.59,18.8c2.37,3.66,4.64,7.27,6.81,10.8l.33-.06c.66-4.07,1.22-8.2,2.1-12.48l4.48-22a3.12,3.12,0,0,1,6.12,1.2l-7.14,33.78a338.47,338.47,0,0,0,39-10.35s2-.4,5.52-1.35Zm-14-54.61a5.7,5.7,0,0,1,7.59,4.4c.32,2.63-1.32,4.79-4.06,5.57-3.09.87-6-.46-6.89-3.55A5.06,5.06,0,0,1,616.85,598.79Z" transform="translate(0.33 0.32)"/><path class="cls-1" d="M756.18,575.58a2.62,2.62,0,0,0-.53-2.28l-3.95-4.82a2.82,2.82,0,0,0-4.08-.26c-11,10.36-12.53,15.79-9.35,19.67,2.91,3.55,7.39,2.4,11.09-.47C752.74,584.81,754.87,580.8,756.18,575.58Z" transform="translate(0.33 0.32)"/></g></svg>
